<svg id="レイヤー_1" data-name="レイヤー 1" xmlns="http://www.w3.org/2000/svg" viewBox="0 0 700 128.99"><title>ozashikireshalogo</title><text transform="translate(0 88.12)" style="font-size:49.01280975341797px;fill:#231815;font-family:VDL-GigaMaru-Medium-90ms-RKSJ-H, VDL-GigaMaru">つくろう展お座敷列車</text><line x1="493.67" y1="102.92" y2="102.92" style="fill:none;stroke:#231815;stroke-miterlimit:10;stroke-width:12.2532025491689px"/><rect x="533.05" y="67.01" width="166.85" height="40.16" style="fill:#231815"/><path d="M721,93.12H529.54q-10.34-21.11,0-42.22H721Z" transform="translate(-21 -5)" style="fill:#231815"/><rect x="507.78" y="96.38" width="65.67" height="13.08" style="fill:#231815"/><rect x="654.82" y="92.23" width="34.46" height="34.46" rx="8.19" ry="8.19" style="fill:#231815;stroke:#fff;stroke-miterlimit:10;stroke-width:4.59495095593833px"/><rect x="611.32" y="92.23" width="34.46" height="34.46" rx="8.19" ry="8.19" style="fill:#231815;stroke:#fff;stroke-miterlimit:10;stroke-width:4.59495095593833px"/><rect x="557.49" y="100.53" width="26.17" height="26.17" rx="6.22" ry="6.22" style="fill:#231815;stroke:#fff;stroke-miterlimit:10;stroke-width:3.48875917071928px"/><rect x="524.46" y="100.53" width="26.17" height="26.17" rx="6.22" ry="6.22" style="fill:#231815;stroke:#fff;stroke-miterlimit:10;stroke-width:3.48875917071928px"/><rect x="462.01" y="100.53" width="26.17" height="26.17" rx="6.22" ry="6.22" style="fill:#231815;stroke:#fff;stroke-miterlimit:10;stroke-width:3.48875917071928px"/><rect x="428.98" y="100.53" width="26.17" height="26.17" rx="6.22" ry="6.22" style="fill:#231815;stroke:#fff;stroke-miterlimit:10;stroke-width:3.48875917071928px"/><rect x="37.31" y="100.53" width="26.17" height="26.17" rx="6.22" ry="6.22" style="fill:#231815;stroke:#fff;stroke-miterlimit:10;stroke-width:3.48875917071928px"/><rect x="4.28" y="100.53" width="26.17" height="26.17" rx="6.22" ry="6.22" style="fill:#231815;stroke:#fff;stroke-miterlimit:10;stroke-width:3.48875917071928px"/><rect x="645.78" width="39.75" height="54.25" style="fill:#231815"/><rect x="533.05" y="17.31" width="17.36" height="36.94" style="fill:#231815"/><rect x="666.69" y="8.88" width="10.34" height="16.85" style="fill:#fff"/></svg>