<svg id="レイヤー_1" data-name="レイヤー 1" xmlns="http://www.w3.org/2000/svg" viewBox="0 0 23 30"><title>pylon</title><path d="M20.1,25.65h-.91L12.74,1.26a1.38,1.38,0,0,0-2.71,0L8.64,6.75,3.88,25.65H3a2.9,2.9,0,0,0-2.9,2.9v1.61H23V28.55A2.9,2.9,0,0,0,20.1,25.65Z" style="fill:#e95513"/><polygon points="8.59 7.03 7.86 9.89 11.45 14.49 11.45 10.76 8.59 7.03" style="fill:#fff"/><polygon points="14.31 7.03 11.45 10.76 11.45 14.49 15.04 9.89 14.31 7.03" style="fill:#fff"/><polygon points="7.61 10.88 6.88 13.74 11.45 19.32 11.45 15.59 7.61 10.88" style="fill:#fff"/><polygon points="15.31 10.85 11.45 15.59 11.45 19.32 16.04 13.71 15.31 10.85" style="fill:#fff"/></svg>